<?xml version="1.0" standalone="no"?>
<!DOCTYPE svg PUBLIC "-//W3C//DTD SVG 20010904//EN"
 "http://www.w3.org/TR/2001/REC-SVG-20010904/DTD/svg10.dtd">
<svg version="1.0" xmlns="http://www.w3.org/2000/svg"
 width="16.000000pt" height="16.000000pt" viewBox="0 0 16.000000 16.000000"
 preserveAspectRatio="xMidYMid meet">
<metadata>
Created by potrace 1.11, written by Peter Selinger 2001-2013
</metadata>
<g transform="translate(0.000000,16.000000) scale(0.004324,-0.004324)"
fill="#000000" stroke="none">
<path d="M1857 3114 c-3 -3 -35 -7 -71 -9 -36 -2 -70 -6 -76 -10 -5 -3 -10 -4
-10 -1 0 3 -24 -2 -52 -11 -29 -8 -60 -17 -68 -18 -8 -2 -16 -4 -17 -5 -2 -2
-6 -3 -10 -4 -5 -1 -18 -7 -31 -14 -12 -7 -27 -10 -32 -7 -6 3 -10 1 -10 -5 0
-6 -4 -8 -10 -5 -5 3 -10 1 -10 -5 0 -6 -4 -8 -10 -5 -5 3 -10 1 -10 -6 0 -7
-3 -10 -6 -6 -3 3 -15 -3 -27 -13 -11 -11 -24 -17 -29 -14 -4 3 -8 0 -8 -5 0
-6 -6 -11 -14 -11 -8 0 -16 -7 -20 -15 -3 -8 -11 -15 -18 -15 -7 0 -33 -18
-57 -40 -24 -22 -48 -37 -52 -34 -5 3 -6 -2 -3 -10 4 -10 1 -16 -7 -16 -8 0
-23 -13 -34 -29 -10 -16 -23 -27 -29 -24 -5 3 -6 2 -3 -4 3 -5 -8 -25 -26 -44
-17 -19 -32 -36 -32 -39 0 -3 -10 -19 -22 -36 -12 -17 -20 -34 -16 -38 3 -3 1
-6 -5 -6 -7 0 -12 -9 -12 -21 0 -13 -4 -18 -12 -13 -6 4 -8 3 -5 -3 4 -6 -3
-30 -15 -54 -12 -24 -21 -52 -20 -61 0 -10 -3 -18 -8 -18 -5 0 -7 -7 -4 -15 4
-8 1 -15 -4 -15 -6 0 -11 -8 -11 -17 0 -10 -2 -34 -6 -53 -3 -19 -6 -47 -7
-62 l-1 -27 -81 4 c-45 2 -93 7 -108 10 -18 5 -28 3 -29 -4 -1 -6 -2 -14 -4
-18 -1 -5 -5 -26 -10 -48 -4 -22 -10 -49 -12 -60 -3 -11 -6 -31 -9 -45 -6 -38
-12 -65 -14 -65 -1 0 -3 -11 -5 -25 -8 -64 -16 -103 -20 -111 -3 -4 -8 -25
-10 -46 -2 -21 -7 -48 -10 -60 -10 -43 -15 -68 -20 -93 -3 -14 -7 -35 -10 -47
-10 -47 -13 -59 -20 -103 -4 -25 -9 -53 -11 -62 -4 -20 -11 -49 -19 -88 -3
-14 -8 -36 -11 -50 -3 -14 -7 -36 -8 -50 -1 -14 -5 -34 -9 -45 -6 -20 -17 -71
-22 -110 -2 -11 -4 -20 -5 -20 -1 0 -3 -9 -5 -20 -1 -11 -5 -33 -9 -50 -4 -16
-9 -44 -11 -62 -3 -17 -10 -44 -15 -59 -6 -15 -9 -29 -6 -31 2 -3 0 -19 -5
-36 -16 -54 -19 -104 -6 -105 16 -1 52 -10 52 -12 0 -1 16 -4 35 -6 74 -9 127
-9 170 -1 25 5 55 10 67 11 12 1 25 5 28 8 4 4 13 4 20 2 7 -3 16 -1 19 5 4 6
13 8 21 4 8 -3 15 1 15 8 0 7 3 10 6 7 3 -4 20 -2 37 3 18 6 39 12 47 14 8 2
29 9 45 15 33 13 63 21 83 22 6 1 12 5 12 9 0 4 8 6 18 4 9 -1 22 2 29 7 6 5
24 11 40 13 15 2 29 4 31 6 1 1 5 2 10 3 4 1 16 5 27 9 21 6 52 13 120 24 22
4 100 7 173 7 88 -1 132 3 133 10 0 6 2 79 4 161 3 83 7 209 9 280 3 72 8 200
10 285 3 85 8 205 11 265 10 205 14 415 7 416 -35 6 -201 9 -334 5 l-76 -2 5
31 c5 35 11 82 17 146 3 25 6 52 8 59 8 36 23 38 207 37 207 -2 193 -9 196 93
1 30 4 74 6 97 l3 42 120 -1 c67 0 128 -2 137 -4 12 -3 16 -21 17 -87 1 -75 7
-125 15 -133 1 -2 89 -4 195 -5 213 -3 201 1 208 -74 2 -16 6 -50 10 -75 3
-25 7 -63 8 -84 l1 -40 -200 -1 c-110 -1 -205 -3 -211 -3 -8 -1 -10 -29 -8
-84 2 -46 6 -157 9 -248 4 -91 8 -212 10 -270 3 -58 7 -179 9 -270 3 -91 8
-226 11 -300 4 -74 8 -160 9 -190 l2 -55 40 2 c129 9 228 5 319 -12 17 -3 37
-7 45 -8 9 -2 21 -6 28 -11 6 -4 12 -5 12 -3 0 3 37 -8 82 -23 46 -16 86 -26
90 -24 5 3 8 0 8 -5 0 -6 3 -10 8 -9 4 0 14 -1 22 -4 17 -7 133 -38 158 -43 9
-1 35 -8 57 -14 22 -6 55 -11 73 -13 17 -1 32 -5 32 -8 0 -3 12 -6 28 -6 87
-4 148 -6 155 -4 16 5 28 8 45 9 29 2 66 36 56 52 -5 8 -9 23 -10 34 -3 31
-21 130 -24 130 -1 0 -3 11 -6 25 -10 61 -13 77 -20 105 -4 17 -7 38 -8 48 0
9 -3 17 -7 17 -4 0 -6 8 -4 18 1 9 0 21 -3 27 -7 11 -12 37 -15 78 -1 15 -6
27 -10 27 -5 0 -6 4 -3 8 3 5 1 24 -4 43 -5 19 -11 48 -14 64 -11 72 -28 151
-34 160 -3 5 -7 21 -7 35 -1 14 -5 41 -10 60 -4 19 -9 45 -11 57 -1 11 -5 32
-9 44 -5 13 -9 35 -11 49 -4 25 -11 65 -20 110 -3 14 -6 35 -7 48 0 12 -4 22
-7 22 -3 0 -6 10 -7 23 -1 21 -10 72 -13 72 -2 0 -9 38 -14 75 -2 14 -5 26 -6
28 -1 1 -4 11 -5 22 -1 11 -4 23 -5 28 -1 4 -2 10 -1 14 0 5 -9 6 -22 4 -12
-3 -22 -5 -22 -6 0 -1 -39 -4 -87 -5 l-88 -4 -1 32 c0 18 -2 39 -4 47 -2 8 -6
26 -9 40 -3 14 -8 36 -12 50 -3 14 -7 33 -7 43 -1 9 -5 17 -9 17 -4 0 -8 4 -8
10 0 5 -11 34 -25 65 -13 30 -24 58 -24 62 1 3 -3 9 -8 12 -14 10 -78 115 -75
123 1 5 -4 7 -10 6 -7 -2 -12 3 -10 10 1 8 -2 11 -8 7 -6 -4 -14 1 -17 11 -2
11 -29 39 -60 64 -30 25 -66 56 -79 69 -13 13 -24 21 -24 17 0 -4 -10 2 -22
14 -12 11 -27 20 -34 20 -6 0 -17 7 -24 15 -7 8 -16 12 -21 10 -4 -3 -11 1
-16 9 -4 8 -10 14 -13 13 -3 -1 -24 5 -45 15 -46 19 -76 30 -90 33 -5 2 -28 7
-50 13 -57 16 -91 21 -170 28 -38 3 -73 8 -76 10 -3 2 -9 1 -12 -2z"/>
<path d="M457 2195 c-14 -14 -18 -25 -32 -100 -8 -39 -13 -60 -15 -60 -1 0 -3
-13 -5 -30 -1 -16 -3 -30 -4 -30 -1 0 -4 -15 -7 -34 -6 -45 -11 -73 -18 -91
-3 -8 -8 -31 -11 -50 -3 -19 -8 -48 -11 -65 -3 -16 -7 -39 -9 -50 -2 -11 -4
-20 -5 -20 -1 0 -3 -9 -5 -20 -1 -11 -5 -33 -9 -50 -5 -28 -9 -44 -21 -97 -3
-13 -7 -36 -10 -53 -4 -30 -10 -58 -20 -105 -4 -14 -8 -35 -11 -47 -20 -105
-22 -112 -28 -148 -3 -16 -8 -41 -11 -55 -3 -14 -8 -36 -10 -50 -2 -14 -7 -35
-10 -47 -12 -51 -16 -70 -22 -103 -3 -19 -6 -41 -6 -47 0 -7 -3 -13 -6 -13 -3
0 -7 -12 -7 -27 -1 -16 -4 -41 -8 -58 -3 -16 -9 -43 -12 -60 -4 -16 -7 -40 -7
-52 -1 -13 -6 -23 -11 -23 -6 0 5 -10 24 -23 19 -12 35 -20 35 -18 0 3 19 -8
42 -22 24 -15 49 -27 56 -27 7 0 17 -4 22 -9 6 -5 42 -18 82 -28 108 -28 338
-18 405 18 10 5 18 7 18 5 0 -3 17 1 38 8 20 7 43 11 50 9 6 -3 12 0 12 7 0 6
6 10 13 9 6 -1 21 1 32 5 11 4 31 12 45 16 14 4 34 11 45 16 11 4 25 8 30 9 6
1 12 3 15 4 3 2 12 4 20 6 8 2 26 7 40 10 14 3 30 7 35 8 6 2 16 6 23 11 7 4
16 5 19 2 3 -3 13 -1 22 3 15 9 36 13 126 28 69 11 265 7 265 -7 0 -3 10 -5
23 -6 12 0 33 -3 47 -6 29 -6 110 -21 125 -23 23 -3 30 17 28 77 -1 34 -2 76
-2 91 -1 16 -5 26 -10 23 -5 -3 -25 1 -45 9 -20 8 -38 15 -41 15 -3 0 -6 0 -7
1 -10 3 -47 10 -68 13 -14 2 -26 5 -27 6 -2 1 -11 3 -20 4 -10 1 -22 4 -28 7
-14 8 -221 3 -270 -6 -22 -5 -50 -8 -62 -9 -13 0 -23 -4 -23 -10 0 -5 -2 -7
-5 -4 -3 3 -43 -5 -88 -19 -111 -32 -120 -34 -134 -35 -7 -1 -13 -5 -13 -9 0
-4 -8 -6 -17 -4 -10 1 -22 -1 -28 -5 -15 -11 -136 -48 -170 -52 -16 -1 -32 -6
-35 -10 -3 -3 -23 -9 -45 -12 -22 -2 -55 -8 -74 -11 -67 -13 -221 -8 -221 7 0
4 -7 5 -15 1 -9 -3 -23 3 -31 13 -9 11 -12 12 -8 4 7 -13 5 -13 -8 -2 -10 8
-15 22 -11 35 3 12 5 32 6 45 1 12 4 22 7 22 3 0 6 8 7 18 0 17 10 75 19 116
21 95 24 108 29 148 3 20 9 47 14 60 4 13 6 29 4 36 -3 6 0 12 5 12 5 0 10 12
10 28 0 15 3 39 6 55 3 15 8 37 10 50 3 12 7 31 9 42 3 11 8 40 13 65 8 47 10
55 14 68 1 4 3 12 5 17 1 6 3 12 4 15 1 3 4 23 6 45 2 22 6 50 9 63 3 12 9 32
12 45 3 12 7 33 9 47 2 14 4 25 5 25 1 0 4 11 6 25 6 43 21 113 24 118 2 1 4
11 5 22 1 11 3 21 4 23 2 1 4 19 6 39 1 20 6 42 11 49 7 12 12 42 16 97 1 12
6 22 11 22 5 0 1 7 -8 16 -14 15 -79 27 -142 26 -13 0 -20 4 -17 9 8 14 -3 11
-19 -6z"/>
<path d="M3288 2205 c-5 -6 -37 -11 -117 -20 -49 -6 -75 -21 -64 -39 8 -12 12
-26 18 -71 4 -29 8 -47 21 -97 3 -13 7 -36 10 -53 2 -16 7 -39 11 -50 4 -11 6
-30 4 -42 -1 -13 2 -23 7 -23 5 0 10 -12 10 -27 0 -16 3 -38 6 -50 14 -52 18
-70 21 -98 1 -16 4 -30 5 -30 1 0 3 -9 5 -20 1 -11 5 -33 9 -50 3 -16 9 -46
12 -65 3 -19 8 -38 10 -41 2 -4 7 -28 10 -55 10 -72 11 -78 18 -94 3 -8 8 -31
10 -50 3 -19 5 -35 6 -35 2 0 7 -28 12 -60 2 -11 8 -26 12 -34 7 -11 6 -12 -5
-6 -12 7 -12 6 -1 -7 7 -8 13 -34 15 -57 1 -22 5 -41 8 -41 3 0 6 -6 7 -12 3
-31 10 -83 12 -83 2 0 4 -9 5 -20 2 -11 6 -32 9 -47 3 -16 8 -40 11 -55 3 -16
8 -39 11 -51 3 -14 1 -21 -5 -18 -5 3 -11 2 -13 -4 -1 -5 -14 -11 -28 -14 -14
-2 -25 -5 -25 -6 0 -11 -186 -15 -239 -5 -17 4 -40 8 -51 10 -11 2 -20 4 -20
5 0 1 -11 3 -25 6 -25 4 -122 31 -150 42 -8 3 -18 6 -22 7 -5 2 -10 4 -13 5
-7 4 -15 5 -58 14 -20 5 -40 12 -43 17 -3 5 -9 7 -14 4 -5 -3 -20 0 -32 7 -13
7 -26 11 -30 10 -4 -1 -25 5 -48 13 -23 8 -46 13 -50 10 -5 -3 -12 -1 -15 5
-4 6 -15 8 -26 5 -10 -4 -19 -2 -19 3 0 5 -6 9 -12 9 -7 1 -31 4 -53 8 -65 11
-330 7 -330 -5 0 -1 -7 -3 -15 -5 -8 -2 -26 -7 -40 -10 -14 -3 -32 -8 -40 -10
-8 -2 -15 -4 -15 -5 0 -1 -16 -5 -52 -13 -21 -5 -22 -11 -25 -104 -3 -75 -1
-90 11 -85 10 4 12 1 6 -7 -6 -10 -3 -11 14 -2 11 7 21 9 21 5 0 -3 6 -2 13 3
6 6 19 11 27 11 22 1 80 12 123 23 20 5 42 7 47 4 6 -3 10 -2 10 3 0 15 200 6
280 -12 14 -3 34 -8 45 -10 11 -2 40 -10 65 -17 25 -7 47 -13 50 -14 3 -1 25
-7 50 -14 25 -7 46 -13 47 -12 2 0 18 -6 38 -15 19 -8 35 -12 35 -9 0 3 11 -2
25 -11 13 -8 29 -13 35 -9 5 3 10 2 10 -2 0 -8 15 -12 58 -15 6 -1 12 -4 12
-8 0 -4 6 -7 13 -7 6 0 37 -6 67 -13 118 -26 275 -31 361 -9 30 7 57 12 62 11
4 -1 7 3 7 10 0 6 3 9 6 6 3 -4 46 14 95 38 49 24 94 44 100 44 5 0 8 4 5 8
-3 5 -8 24 -11 43 -3 19 -10 57 -15 84 -6 28 -13 61 -15 75 -3 14 -8 39 -12
55 -3 17 -7 40 -7 53 -1 12 -4 22 -8 22 -4 0 -7 10 -7 23 1 12 -2 33 -5 47
-13 54 -19 86 -20 108 -1 12 -3 22 -6 22 -3 0 -6 8 -7 18 -1 9 -4 31 -8 47 -4
17 -8 39 -10 50 -6 35 -22 119 -30 155 -4 14 -8 36 -11 50 -3 14 -7 36 -10 50
-3 14 -7 36 -8 50 -1 14 -6 31 -10 38 -4 7 -5 16 -1 21 3 5 1 12 -4 16 -5 3
-10 13 -10 23 0 28 -9 91 -14 99 -3 4 -8 24 -11 43 -3 19 -9 49 -12 65 -4 17
-8 40 -8 53 -1 12 -4 22 -7 22 -3 0 -6 6 -6 13 0 14 -18 117 -28 162 -2 11 -7
36 -10 55 -7 36 -17 54 -27 45z"/>
</g>
</svg>
