<?xml version="1.0" standalone="no"?>
<!DOCTYPE svg PUBLIC "-//W3C//DTD SVG 20010904//EN"
 "http://www.w3.org/TR/2001/REC-SVG-20010904/DTD/svg10.dtd">
<svg version="1.0" xmlns="http://www.w3.org/2000/svg"
 width="16.000000pt" height="16.000000pt" viewBox="0 0 16.000000 16.000000"
 preserveAspectRatio="xMidYMid meet">
<metadata>
Created by potrace 1.11, written by Peter Selinger 2001-2013
</metadata>
<g transform="translate(0.000000,16.000000) scale(0.004324,-0.004324)"
fill="#000000" stroke="none">
<path d="M1780 3114 c-269 -33 -474 -139 -645 -335 -108 -123 -193 -311 -211
-463 l-7 -58 -86 5 c-47 3 -95 7 -106 9 -18 3 -23 -14 -62 -207 -128 -644
-197 -988 -227 -1135 -19 -91 -31 -168 -28 -172 14 -14 128 -38 183 -38 86 0
199 25 417 91 271 82 385 102 534 97 113 -4 119 -3 123 16 2 12 6 111 9 221 3
110 11 328 17 485 22 596 25 695 18 704 -5 5 -98 9 -208 9 l-201 0 6 41 c13
97 26 182 30 198 5 16 25 18 197 20 l192 3 6 105 c4 58 7 108 8 113 0 4 60 7
131 7 l130 0 1 -67 c1 -112 11 -157 34 -159 11 0 99 -1 196 -2 l176 -2 17
-104 c9 -58 16 -117 16 -131 l0 -26 -122 2 c-68 1 -163 2 -212 1 l-89 -2 6
-167 c4 -93 11 -305 17 -473 16 -452 29 -793 32 -795 2 -2 44 2 94 8 116 13
260 -6 429 -59 322 -99 442 -126 575 -128 85 -1 112 3 139 17 41 23 46 -22
-59 487 -43 212 -97 482 -120 600 -76 398 -88 447 -110 441 -8 -2 -54 -6 -101
-9 l-86 -4 -13 78 c-60 376 -374 692 -759 764 -63 12 -230 20 -281 14z"/>
<path d="M436 2188 c-21 -95 -47 -223 -55 -273 -13 -76 -7 -45 -107 -540 -70
-346 -154 -771 -154 -783 0 -9 215 -104 265 -117 74 -19 225 -19 330 -1 44 8
154 38 245 66 409 127 506 139 745 92 83 -16 153 -28 158 -25 4 2 7 47 7 99 0
109 11 98 -133 135 -215 56 -369 42 -727 -66 -321 -97 -435 -116 -556 -91 -42
8 -81 19 -86 24 -4 4 17 129 47 277 140 701 235 1188 231 1192 -3 4 -177 32
-198 33 -4 0 -10 -10 -12 -22z"/>
<path d="M3198 2196 c-48 -7 -90 -15 -93 -18 -4 -3 23 -152 60 -330 36 -177
77 -381 90 -453 13 -71 49 -254 79 -405 31 -151 52 -278 48 -282 -11 -11 -138
-38 -178 -38 -58 0 -219 32 -334 67 -363 110 -470 133 -618 134 -80 0 -134 -6
-212 -25 -173 -41 -160 -29 -160 -140 0 -52 4 -97 9 -100 5 -3 73 8 152 25
231 50 343 37 727 -85 263 -84 443 -105 592 -70 74 17 270 107 270 124 0 6
-27 145 -60 308 -33 163 -82 407 -109 542 -27 135 -63 319 -80 410 -50 260
-72 350 -84 349 -7 -1 -51 -7 -99 -13z"/>
</g>
</svg>
